<svg id="SvgjsSvg1006" width="631" height="502" xmlns="http://www.w3.org/2000/svg" version="1.1" xmlns:xlink="http://www.w3.org/1999/xlink" xmlns:svgjs="http://svgjs.com/svgjs"><defs id="SvgjsDefs1007"></defs><g id="SvgjsG1008" transform="translate(239,25)"><path id="SvgjsPath1009" d="M 0 40.5C 0 -13.5 128 -13.5 128 40.5C 128 94.5 0 94.5 0 40.5Z" stroke="rgba(50,50,50,1)" stroke-width="2" fill-opacity="1" fill="#ffffff"></path><g id="SvgjsG1010"><text id="SvgjsText1011" font-family="Arial" text-anchor="middle" font-size="24px" width="108px" fill="#323232" font-weight="400" align="middle" anchor="middle" family="Arial" size="24px" weight="400" font-style="" opacity="1" y="19.9" transform="rotate(0)"><tspan id="SvgjsTspan1012" dy="30" x="64"><tspan id="SvgjsTspan1013" style="text-decoration:;">unknown</tspan></tspan></text></g></g><g id="SvgjsG1014" transform="translate(239,403)"><path id="SvgjsPath1015" d="M 0 37C 0 -12.333333333333334 128 -12.333333333333334 128 37C 128 86.33333333333333 0 86.33333333333333 0 37Z" stroke="rgba(50,50,50,1)" stroke-width="2" fill-opacity="1" fill="#ffffff"></path><g id="SvgjsG1016"><text id="SvgjsText1017" font-family="微软雅黑" text-anchor="middle" font-size="24px" width="108px" fill="#323232" font-weight="400" align="middle" anchor="middle" family="微软雅黑" size="24px" weight="400" font-style="" opacity="1" y="16.4" transform="rotate(0)"><tspan id="SvgjsTspan1018" dy="30" x="64"><tspan id="SvgjsTspan1019" style="text-decoration:;">never</tspan></tspan></text></g></g><g id="SvgjsG1020" transform="translate(226,159)"><path id="SvgjsPath1021" d="M 0 40C 0 -13.333333333333334 154 -13.333333333333334 154 40C 154 93.33333333333333 0 93.33333333333333 0 40Z" stroke="rgba(50,50,50,1)" stroke-width="2" fill-opacity="1" fill="#ffffff"></path><g id="SvgjsG1022"><text id="SvgjsText1023" font-family="微软雅黑" text-anchor="middle" font-size="24px" width="134px" fill="#323232" font-weight="400" align="middle" anchor="middle" family="微软雅黑" size="24px" weight="400" font-style="" opacity="1" y="19.4" transform="rotate(0)"><tspan id="SvgjsTspan1024" dy="30" x="77"><tspan id="SvgjsTspan1025" style="text-decoration:;">{foo:string}</tspan></tspan></text></g></g><g id="SvgjsG1026" transform="translate(235,285.5)"><path id="SvgjsPath1027" d="M 0 38C 0 -12.666666666666666 128 -12.666666666666666 128 38C 128 88.66666666666667 0 88.66666666666667 0 38Z" stroke="rgba(50,50,50,1)" stroke-width="2" fill-opacity="1" fill="#ffffff"></path><g id="SvgjsG1028"><text id="SvgjsText1029" font-family="微软雅黑" text-anchor="middle" font-size="24px" width="108px" fill="#323232" font-weight="400" align="middle" anchor="middle" family="微软雅黑" size="24px" weight="400" font-style="" opacity="1" y="17.4" transform="rotate(0)"><tspan id="SvgjsTspan1030" dy="30" x="64"><tspan id="SvgjsTspan1031" style="text-decoration:;">string</tspan></tspan></text></g></g><g id="SvgjsG1032" transform="translate(405,280.5)"><path id="SvgjsPath1033" d="M 0 40C 0 -13.333333333333334 201 -13.333333333333334 201 40C 201 93.33333333333333 0 93.33333333333333 0 40Z" stroke="rgba(50,50,50,1)" stroke-width="2" fill-opacity="1" fill="#ffffff"></path><g id="SvgjsG1034"><text id="SvgjsText1035" font-family="微软雅黑" text-anchor="middle" font-size="24px" width="181px" fill="#323232" font-weight="400" align="middle" anchor="middle" family="微软雅黑" size="24px" weight="400" font-style="" opacity="1" y="4.4" transform="rotate(0)"><tspan id="SvgjsTspan1036" dy="30" x="100.5"><tspan id="SvgjsTspan1037" style="text-decoration:;">&amp;{foo:string}</tspan></tspan><tspan id="SvgjsTspan1038" dy="30" x="100.5"><tspan id="SvgjsTspan1039" style="text-decoration:;"> &amp;{bar:boolean}</tspan></tspan></text></g></g><g id="SvgjsG1040" transform="translate(411,161.7716985072438)"><path id="SvgjsPath1041" d="M 0 33.2283014927562C 0 -11.0761004975854 172 -11.0761004975854 172 33.2283014927562C 172 77.5327034830978 0 77.5327034830978 0 33.2283014927562Z" stroke="rgba(50,50,50,1)" stroke-width="2" fill-opacity="1" fill="#ffffff"></path><g id="SvgjsG1042"><text id="SvgjsText1043" font-family="微软雅黑" text-anchor="middle" font-size="24px" width="152px" fill="#323232" font-weight="400" align="middle" anchor="middle" family="微软雅黑" size="24px" weight="400" font-style="" opacity="1" y="12.628301492756203" transform="rotate(0)"><tspan id="SvgjsTspan1044" dy="30" x="86"><tspan id="SvgjsTspan1045" style="text-decoration:;">{bar:boolean}</tspan></tspan></text></g></g><g id="SvgjsG1046" transform="translate(25,280.5)"><path id="SvgjsPath1047" d="M 0 40.5C 0 -13.5 128 -13.5 128 40.5C 128 94.5 0 94.5 0 40.5Z" stroke="rgba(50,50,50,1)" stroke-width="2" fill-opacity="1" fill="#ffffff"></path><g id="SvgjsG1048"><text id="SvgjsText1049" font-family="Arial" text-anchor="middle" font-size="24px" width="108px" fill="#323232" font-weight="400" align="middle" anchor="middle" family="Arial" size="24px" weight="400" font-style="" opacity="1" y="19.9" transform="rotate(0)"><tspan id="SvgjsTspan1050" dy="30" x="64"><tspan id="SvgjsTspan1051" style="text-decoration:;">boolean</tspan></tspan></text></g></g><g id="SvgjsG1052" transform="translate(28,154.5)"><path id="SvgjsPath1053" d="M 0 40.5C 0 -13.5 128 -13.5 128 40.5C 128 94.5 0 94.5 0 40.5Z" stroke="rgba(50,50,50,1)" stroke-width="2" fill-opacity="1" fill="#ffffff"></path><g id="SvgjsG1054"><text id="SvgjsText1055" font-family="Arial" text-anchor="middle" font-size="24px" width="108px" fill="#323232" font-weight="400" align="middle" anchor="middle" family="Arial" size="24px" weight="400" font-style="" opacity="1" y="4.9" transform="rotate(0)"><tspan id="SvgjsTspan1056" dy="30" x="64"><tspan id="SvgjsTspan1057" style="text-decoration:;">|boolean</tspan></tspan><tspan id="SvgjsTspan1058" dy="30" x="64"><tspan id="SvgjsTspan1059" style="text-decoration:;">|string</tspan></tspan></text></g></g><g id="SvgjsG1060" transform="matrix(0.6427876096865394,0.766044443118978,-0.766044443118978,0.6427876096865394,240.78271845853214,82.35755074711732)"><path id="SvgjsPath1061" d="M 10 0L 20 10L 13.4 10L 13.4 129.4917789124617L 6.6000000000000005 129.4917789124617L 6.6000000000000005 10L 0 10L 10 0Z" stroke="rgba(50,50,50,1)" stroke-width="2" fill-opacity="1" fill="#ffffff"></path><g id="SvgjsG1062"><text id="SvgjsText1063" font-family="微软雅黑" text-anchor="middle" font-size="13px" width="28px" fill="#323232" font-weight="400" align="middle" anchor="middle" family="微软雅黑" size="13px" weight="400" font-style="" opacity="1" y="61.270478401853936" transform="rotate(0)"></text></g></g><g id="SvgjsG1064" transform="translate(293,107.1358492536219)"><path id="SvgjsPath1065" d="M 10 0L 20 10L 13.4 10L 13.4 49L 6.6000000000000005 49L 6.6000000000000005 10L 0 10L 10 0Z" stroke="rgba(50,50,50,1)" stroke-width="2" fill-opacity="1" fill="#ffffff"></path><g id="SvgjsG1066"><text id="SvgjsText1067" font-family="微软雅黑" text-anchor="middle" font-size="13px" width="28px" fill="#323232" font-weight="400" align="middle" anchor="middle" family="微软雅黑" size="13px" weight="400" font-style="" opacity="1" y="17" transform="rotate(0)"></text></g></g><g id="SvgjsG1068" transform="translate(489,231.2283014927562)"><path id="SvgjsPath1069" d="M 14 0L 28 14L 18.76 14L 18.76 46.36415074637813L 9.24 46.36415074637813L 9.24 14L 0 14L 14 0Z" stroke="rgba(50,50,50,1)" stroke-width="2" fill-opacity="1" fill="#ffffff"></path><g id="SvgjsG1070"><text id="SvgjsText1071" font-family="微软雅黑" text-anchor="middle" font-size="13px" width="40px" fill="#323232" font-weight="400" align="middle" anchor="middle" family="微软雅黑" size="13px" weight="400" font-style="" opacity="1" y="15.55028291050797" transform="rotate(0)"></text></g></g><g id="SvgjsG1072" transform="translate(293,361.5)"><path id="SvgjsPath1073" d="M 10 0L 20 10L 13.4 10L 13.4 41.5L 6.6000000000000005 41.5L 6.6000000000000005 10L 0 10L 10 0Z" stroke="rgba(50,50,50,1)" stroke-width="2" fill-opacity="1" fill="#ffffff"></path><g id="SvgjsG1074"><text id="SvgjsText1075" font-family="微软雅黑" text-anchor="middle" font-size="13px" width="28px" fill="#323232" font-weight="400" align="middle" anchor="middle" family="微软雅黑" size="13px" weight="400" font-style="" opacity="1" y="12.875" transform="rotate(0)"></text></g></g><g id="SvgjsG1076" transform="translate(82,235.5)"><path id="SvgjsPath1077" d="M 10 0L 20 10L 13.4 10L 13.4 45L 6.6000000000000005 45L 6.6000000000000005 10L 0 10L 10 0Z" stroke="rgba(50,50,50,1)" stroke-width="2" fill-opacity="1" fill="#ffffff"></path><g id="SvgjsG1078"><text id="SvgjsText1079" font-family="微软雅黑" text-anchor="middle" font-size="13px" width="28px" fill="#323232" font-weight="400" align="middle" anchor="middle" family="微软雅黑" size="13px" weight="400" font-style="" opacity="1" y="14.8" transform="rotate(0)"></text></g></g><g id="SvgjsG1080" transform="matrix(0.6427876096865394,0.766044443118978,-0.766044443118978,0.6427876096865394,437.7986254292774,347.16022310645224)"><path id="SvgjsPath1081" d="M 10 0L 20 10L 13.4 10L 13.4 106.56478572787654L 6.6000000000000005 106.56478572787654L 6.6000000000000005 10L 0 10L 10 0Z" stroke="rgba(50,50,50,1)" stroke-width="2" fill-opacity="1" fill="#ffffff"></path><g id="SvgjsG1082"><text id="SvgjsText1083" font-family="微软雅黑" text-anchor="middle" font-size="13px" width="28px" fill="#323232" font-weight="400" align="middle" anchor="middle" family="微软雅黑" size="13px" weight="400" font-style="" opacity="1" y="48.6606321503321" transform="rotate(0)"></text></g></g><g id="SvgjsG1084" transform="matrix(0.573576436351046,-0.8191520442889918,0.8191520442889918,0.573576436351046,126.60336476092317,359.6033208294318)"><path id="SvgjsPath1085" d="M 10 0L 20 10L 13.4 10L 13.4 127.36532752212901L 6.6000000000000005 127.36532752212901L 6.6000000000000005 10L 0 10L 10 0Z" stroke="rgba(50,50,50,1)" stroke-width="2" fill-opacity="1" fill="#ffffff"></path><g id="SvgjsG1086"><text id="SvgjsText1087" font-family="微软雅黑" text-anchor="middle" font-size="13px" width="28px" fill="#323232" font-weight="400" align="middle" anchor="middle" family="微软雅黑" size="13px" weight="400" font-style="" opacity="1" y="60.10093013717095" transform="rotate(0)"></text></g></g><g id="SvgjsG1088" transform="matrix(0.573576436351046,-0.8191520442889918,0.8191520442889918,0.573576436351046,347.9313066554544,99.6033284588263)"><path id="SvgjsPath1089" d="M 10 0L 20 10L 13.4 10L 13.4 127.36532752212901L 6.6000000000000005 127.36532752212901L 6.6000000000000005 10L 0 10L 10 0Z" stroke="rgba(50,50,50,1)" stroke-width="2" fill-opacity="1" fill="#ffffff"></path><g id="SvgjsG1090"><text id="SvgjsText1091" font-family="微软雅黑" text-anchor="middle" font-size="13px" width="28px" fill="#323232" font-weight="400" align="middle" anchor="middle" family="微软雅黑" size="13px" weight="400" font-style="" opacity="1" y="60.10093013717095" transform="rotate(0)"></text></g></g><g id="SvgjsG1092" transform="matrix(0.573576436351046,-0.8191520442889918,0.8191520442889918,0.573576436351046,135.7108171535013,232.23799490169742)"><path id="SvgjsPath1093" d="M 10 0L 20 10L 13.4 10L 13.4 127.36532752212901L 6.6000000000000005 127.36532752212901L 6.6000000000000005 10L 0 10L 10 0Z" stroke="rgba(50,50,50,1)" stroke-width="2" fill-opacity="1" fill="#ffffff"></path><g id="SvgjsG1094"><text id="SvgjsText1095" font-family="微软雅黑" text-anchor="middle" font-size="13px" width="28px" fill="#323232" font-weight="400" align="middle" anchor="middle" family="微软雅黑" size="13px" weight="400" font-style="" opacity="1" y="60.10093013717095" transform="rotate(0)"></text></g></g><g id="SvgjsG1096" transform="matrix(0.6427876096865393,-0.7660444431189781,0.7660444431189781,0.6427876096865393,343.969423507533,237.2756801283498)"><path id="SvgjsPath1097" d="M 10 0L 20 10L 13.4 10L 13.4 99.04644642266703L 6.6000000000000005 99.04644642266703L 6.6000000000000005 10L 0 10L 10 0Z" stroke="rgba(50,50,50,1)" stroke-width="2" fill-opacity="1" fill="#ffffff"></path><g id="SvgjsG1098"><text id="SvgjsText1099" font-family="微软雅黑" text-anchor="middle" font-size="13px" width="28px" fill="#323232" font-weight="400" align="middle" anchor="middle" family="微软雅黑" size="13px" weight="400" font-style="" opacity="1" y="44.525545532466865" transform="rotate(0)"></text></g></g></svg>